<?xml version="1.0" standalone="no"?>
<!DOCTYPE svg PUBLIC "-//W3C//DTD SVG 20010904//EN"
 "http://www.w3.org/TR/2001/REC-SVG-20010904/DTD/svg10.dtd">
<svg version="1.0" xmlns="http://www.w3.org/2000/svg"
 width="626.000000pt" height="626.000000pt" viewBox="0 0 626.000000 626.000000"
 preserveAspectRatio="xMidYMid meet">
<metadata>
Created by potrace 1.16, written by Peter Selinger 2001-2019
</metadata>
<g transform="translate(0.000000,626.000000) scale(0.100000,-0.100000)"
fill="#000000" stroke="none">
<path d="M2823 5696 c-117 -55 -162 -190 -103 -306 35 -68 111 -112 215 -122
27 -3 32 -9 47 -57 27 -84 41 -207 33 -301 -14 -183 -53 -319 -177 -630 -140
-348 -188 -528 -188 -702 l0 -91 -46 -49 c-65 -70 -98 -146 -102 -238 -3 -60
1 -83 17 -113 l20 -38 -55 -84 c-30 -46 -54 -87 -54 -93 0 -5 -30 -31 -66 -58
-142 -104 -233 -280 -288 -555 -4 -17 -16 -31 -35 -39 -16 -6 -40 -23 -53 -37
-20 -22 -23 -34 -23 -108 0 -68 4 -88 21 -112 11 -15 28 -50 39 -78 49 -135
149 -230 288 -275 l38 -12 -7 -76 c-14 -142 -10 -523 4 -565 20 -54 53 -89
111 -116 48 -23 51 -26 62 -80 6 -31 19 -78 29 -104 21 -54 22 -52 -53 -61
-93 -11 -127 -46 -127 -133 0 -40 5 -50 42 -88 34 -34 55 -45 102 -56 52 -11
71 -10 185 10 221 40 297 60 341 92 62 45 89 127 56 174 -10 16 -11 32 -2 78
l10 58 70 -3 69 -3 12 -60 c7 -33 10 -77 7 -97 -6 -49 17 -84 72 -109 78 -34
278 -80 376 -86 83 -5 102 -3 142 15 119 52 92 164 -52 216 -48 17 -60 29 -41
40 4 3 19 34 31 68 13 35 24 64 25 66 1 1 27 9 59 17 116 30 196 87 237 167
42 82 51 159 54 432 l3 259 56 30 c31 16 77 53 103 81 32 34 63 56 93 66 36
12 49 24 69 58 31 58 40 158 18 210 -9 21 -18 79 -20 132 -10 193 -94 354
-305 582 -44 47 -83 95 -87 107 -4 13 3 33 18 58 37 57 50 107 45 182 -6 112
-78 227 -185 294 l-40 25 -6 164 c-14 346 -65 585 -172 801 -80 160 -139 240
-504 682 l-153 186 28 52 c52 94 35 226 -38 294 -68 64 -177 80 -265 39z"/>
</g>
</svg>
